<svg width="1381" height="1041" viewBox="0 0 1381 1041" fill="none" xmlns="http://www.w3.org/2000/svg">
<path fill-rule="evenodd" clip-rule="evenodd" d="M67 0H90V23C90 39.5685 103.431 53 120 53H436C452.569 53 466 39.5685 466 23V0H489C526.003 0 556 29.9969 556 67V414V970V974C556 1011 526.003 1041 489 1041H67C29.9969 1041 0 1011 0 974V67C0 29.9969 29.9969 0 67 0ZM576 970V414H1314C1351 414 1381 443.997 1381 481V504H1358C1341.43 504 1328 517.431 1328 534V850C1328 866.569 1341.43 880 1358 880H1381V903C1381 940.003 1351 970 1314 970H576ZM678.333 151.227C653.84 139.514 630.432 131.425 610.5 125.87V110.319C631.98 116.086 657.738 124.751 684.805 137.695C752.016 169.838 827.522 228.516 865.179 334.683L888.767 290.622C890.723 286.97 895.268 285.595 898.919 287.55C902.571 289.505 903.947 294.05 901.992 297.702L870.133 357.21C868.178 360.862 863.633 362.238 859.981 360.283L800.472 328.424C796.821 326.469 795.445 321.924 797.4 318.272C799.355 314.62 803.9 313.245 807.552 315.2L850.505 338.195C814.331 237.673 742.698 182.008 678.333 151.227Z" fill="white"/>
</svg>
